HIERARCHY
ROOT Hips
{
  OFFSET 51.4465 96.0886 7.46906
  CHANNELS 6 Xposition Yposition Zposition Zrotation Xrotation Yrotation
  JOINT spine
  {
    OFFSET 0 8.13249 0.467659
    CHANNELS 3 Zrotation Xrotation Yrotation
    JOINT spine1
    {
      OFFSET 0 10.3498 0
      CHANNELS 3 Zrotation Xrotation Yrotation
      JOINT spine2
      {
        OFFSET 0 9.91699 0
        CHANNELS 3 Zrotation Xrotation Yrotation
        JOINT Neck
        {
          OFFSET 0 25.461 1.2139
          CHANNELS 3 Zrotation Xrotation Yrotation
          JOINT Head
          {
            OFFSET 0 7.69245 0
            CHANNELS 3 Zrotation Xrotation Yrotation
            End Site
            {
              OFFSET 0 18.62 -6.14063
            }
          }
        }
        JOINT RightShoulder
        {
          OFFSET -4.17575 10.7096 -0.581445
          CHANNELS 3 Zrotation Xrotation Yrotation
          JOINT RightArm
          {
            OFFSET 0 14.0466 0
            CHANNELS 3 Zrotation Xrotation Yrotation
            JOINT RightArmRoll
            {
              OFFSET 0 7.09098 0
              CHANNELS 3 Zrotation Xrotation Yrotation
              JOINT RightForeArm
              {
                OFFSET 0 20.6535 0
                CHANNELS 3 Zrotation Xrotation Yrotation
                JOINT RightForeArmRoll
                {
                  OFFSET 0 7.95718 0
                  CHANNELS 3 Zrotation Xrotation Yrotation
                  JOINT RightHand
                  {
                    OFFSET 0 15.9683 0
                    CHANNELS 3 Zrotation Xrotation Yrotation
                    End Site
                    {
                      OFFSET 0 0 0
                    }
                  }
                }
              }
            }
          }
        }
        JOINT LeftShoulder
        {
          OFFSET 4.17575 10.7096 -0.581445
          CHANNELS 3 Zrotation Xrotation Yrotation
          JOINT LeftArm
          {
            OFFSET 0 14.0466 0
            CHANNELS 3 Zrotation Xrotation Yrotation
            JOINT LeftArmRoll
            {
              OFFSET 0 7.09099 0
              CHANNELS 3 Zrotation Xrotation Yrotation
              JOINT LeftForeArm
              {
                OFFSET 0 20.6535 0
                CHANNELS 3 Zrotation Xrotation Yrotation
                JOINT LeftForeArmRoll
                {
                  OFFSET 0 7.95718 0
                  CHANNELS 3 Zrotation Xrotation Yrotation
                  JOINT LeftHand
                  {
                    OFFSET 0 15.9683 0
                    CHANNELS 3 Zrotation Xrotation Yrotation
                    End Site
                    {
                      OFFSET 0 0 0
                    }
                  }
                }
              }
            }
          }
        }
      }
    }
  }
  JOINT RightUpLeg
  {
    OFFSET -7.20834 -1.32182 -1.10884
    CHANNELS 3 Zrotation Xrotation Yrotation
    JOINT RightUpLegRoll
    {
      OFFSET 0 18.7238 0
      CHANNELS 3 Zrotation Xrotation Yrotation
      JOINT RightLeg
      {
        OFFSET 0 -23.1866 0
        CHANNELS 3 Zrotation Xrotation Yrotation
        JOINT RightLegRoll
        {
          OFFSET 0 23.2624 0
          CHANNELS 3 Zrotation Xrotation Yrotation
          JOINT RightFoot
          {
            OFFSET 0 19.3621 0
            CHANNELS 3 Zrotation Xrotation Yrotation
            JOINT RightToeBase
            {
              OFFSET 0 16.1857 0
              CHANNELS 3 Zrotation Xrotation Yrotation
              End Site
              {
                OFFSET 0.00686052 7.83863 -0.903521
              }
            }
          }
        }
      }
    }
  }
  JOINT LeftUpLeg
  {
    OFFSET 7.20834 -1.32182 -1.10884
    CHANNELS 3 Zrotation Xrotation Yrotation
    JOINT LeftUpLegRoll
    {
      OFFSET 0 18.7239 0
      CHANNELS 3 Zrotation Xrotation Yrotation
      JOINT LeftLeg
      {
        OFFSET 0 23.1865 0
        CHANNELS 3 Zrotation Xrotation Yrotation
        JOINT LeftLegRoll
        {
          OFFSET 0 23.4775 0
          CHANNELS 3 Zrotation Xrotation Yrotation
          JOINT LeftFoot
          {
            OFFSET 0 19.147 0
            CHANNELS 3 Zrotation Xrotation Yrotation
            JOINT LeftToeBase
            {
              OFFSET 0 16.1857 0
              CHANNELS 3 Zrotation Xrotation Yrotation
              End Site
              {
                OFFSET -0.0307459 7.83863 -0.903522
              }
            }
          }
        }
      }
    }
  }
}
MOTION
Frames: 12
Frame Time: 0.00208333
52.2788 96.106 7.73098 -1.86661 -4.19572 1.32738 0.236297 -1.38084 0.100477 0.476586 1.24146 0.176025 0.474942 2.8865 0.16787 6.03195 10.7153 -7.26926 12.9917 1.60607 -4.68875 34.756 -17.192 -13.2006 50.0047 48.0094 59.0403 1.48623e-006 -1.16626e-006 -2.64008e-006 -0.371834 63.1948 2.14535 -6.73221e-006 -2.22006e-006 -3.00238 8.02959 -4.95143 0.697659 -63.7217 -6.18489 4.07413 -105.364 16.3422 -9.5236 -3.6258e-008 2.91198e-006 5.49621e-006 -8.90177 0.0685437 0.952808 1.42125e-005 -1.18897e-008 3.0193 -8.02908 -4.95143 -0.697688 174.709 0.801877 2.45712 180 7.01544e-015 178.909 179.412 10.662 179.586 -1.49666e-006 -1.14852e-006 0.11707 -18.3571 68.7913 20.1893 8.13649 25.2327 -3.48773 -171.615 0.703457 -2.59224 4.54188e-006 -4.6773e-006 -0.897984 -0.869991 -14.5896 0.57402 -2.31005e-006 1.7212e-006 -0.232877 20.5318 72.5553 -23.9546 -8.13666 25.2352 3.4844 
52.2794 96.1025 7.73773 -1.86949 -4.18346 1.35047 0.234349 -1.38257 0.101209 0.473311 1.23801 0.176255 0.47165 2.88304 0.168159 6.04622 10.6503 -7.29789 13.0136 1.69573 -4.72634 34.7459 -17.2008 -13.2104 50.008 47.992 59.239 1.48623e-006 -1.16626e-006 -2.64008e-006 -0.564558 62.5866 2.27822 -6.73221e-006 -2.22006e-006 -3.00238 8.02959 -4.95143 0.697659 -63.7346 -6.1897 4.07741 -105.349 16.335 -9.5311 -3.62579e-008 2.91198e-006 5.49621e-006 -8.90174 0.0685419 0.951934 1.42125e-005 -1.18897e-008 3.01933 -8.02908 -4.95143 -0.697688 174.715 0.806158 2.45376 180 7.01544e-015 178.909 179.411 10.6565 179.586 -1.49666e-006 -1.14852e-006 0.117036 -18.362 68.7933 20.1914 8.13649 25.2327 -3.48773 -171.61 0.723983 -2.59061 4.54188e-006 -4.6773e-006 -0.897191 -0.86584 -14.5922 0.575412 -2.31005e-006 1.7212e-006 -0.232423 20.5201 72.5511 -23.9497 -8.13666 25.2352 3.4844 
52.2812 96.1 7.72276 -1.87248 -4.17146 1.37348 0.23242 -1.38425 0.101975 0.47007 1.23463 0.176489 0.46839 2.87967 0.168462 6.06 10.5847 -7.32636 13.0352 1.7869 -4.76419 34.7357 -17.2097 -13.2205 50.0105 47.9761 59.4374 1.48623e-006 -1.16626e-006 -2.64008e-006 -0.754982 61.9765 2.40677 -6.73221e-006 -2.22006e-006 -3.00238 8.02959 -4.95143 0.697659 -63.7473 -6.19437 4.0806 -105.334 16.3277 -9.53912 -3.6258e-008 2.91198e-006 5.49621e-006 -8.90144 0.0685402 0.951107 1.42125e-005 -1.18897e-008 3.01936 -8.02908 -4.95143 -0.697688 174.722 0.809724 2.45044 180 7.01544e-015 178.909 179.409 10.6502 179.587 -1.49666e-006 -1.14852e-006 0.116981 -18.3668 68.7949 20.1932 8.13649 25.2327 -3.48773 -171.605 0.743905 -2.58835 4.54188e-006 -4.6773e-006 -0.896364 -0.861029 -14.594 0.576967 -2.31005e-006 1.7212e-006 -0.231975 20.5076 72.5466 -23.9444 -8.13666 25.2352 3.4844 
52.2816 96.1008 7.7264 -1.87554 -4.15984 1.39628 0.230518 -1.38588 0.102777 0.466863 1.23138 0.176776 0.465164 2.87642 0.168826 6.07283 10.5193 -7.35438 13.0573 1.87866 -4.80192 34.7252 -17.2189 -13.2308 50.0121 47.9619 59.6353 1.48623e-006 -1.16626e-006 -2.64008e-006 -0.94315 61.3641 2.53092 -6.73221e-006 -2.22006e-006 -3.00237 8.02959 -4.95143 0.697659 -63.7599 -6.19881 4.08365 -105.319 16.3202 -9.54767 -3.62579e-008 2.91198e-006 5.49621e-006 -8.90092 0.0685385 0.950323 1.42125e-005 -1.18897e-008 3.01939 -8.02908 -4.95143 -0.697688 174.728 0.812525 2.44715 180 7.01544e-015 178.909 179.408 10.6432 179.587 -1.49666e-006 -1.14852e-006 0.116913 -18.3714 68.7962 20.1949 8.13649 25.2327 -3.48773 -171.6 0.763071 -2.58563 4.54188e-006 -4.6773e-006 -0.895518 -0.855732 -14.5952 0.578641 -2.31005e-006 1.7212e-006 -0.231535 20.4943 72.5419 -23.9388 -8.13666 25.2352 3.4844 
52.2752 96.1023 7.73944 -1.87867 -4.14876 1.41874 0.228647 -1.38743 0.103615 0.463694 1.22828 0.177163 0.461973 2.87332 0.169297 6.08426 10.455 -7.38167 13.0804 1.9701 -4.83911 34.7146 -17.2281 -13.2412 50.0125 47.9494 59.8328 1.48623e-006 -1.16626e-006 -2.64008e-006 -1.1291 60.7488 2.6506 -6.73221e-006 -2.22006e-006 -3.00237 8.02959 -4.95143 0.697659 -63.7726 -6.20292 4.08653 -105.303 16.3124 -9.55678 -3.62579e-008 2.91198e-006 5.49621e-006 -8.90018 0.0685369 0.949577 1.42125e-005 -1.18897e-008 3.01943 -8.02908 -4.95143 -0.697688 174.735 0.814512 2.4439 180 7.01544e-015 178.909 179.407 10.6357 179.588 -1.49666e-006 -1.14852e-006 0.116845 -18.3759 68.7973 20.1964 8.13649 25.2327 -3.48773 -171.596 0.781328 -2.58266 4.54188e-006 -4.6773e-006 -0.894668 -0.850123 -14.5958 0.580387 -2.31005e-006 1.7212e-006 -0.231107 20.4807 72.5372 -23.9331 -8.13666 25.2352 3.4844 
52.2766 96.1022 7.7354 -1.88183 -4.13833 1.44074 0.226815 -1.38888 0.104491 0.460562 1.22537 0.177699 0.458818 2.87041 0.16992 6.09382 10.3926 -7.40793 13.1055 2.06028 -4.87538 34.7036 -17.2373 -13.2517 50.0116 47.9386 60.0295 1.48623e-006 -1.16626e-006 -2.64008e-006 -1.31289 60.1303 2.76575 -6.73221e-006 -2.22006e-006 -3.00237 8.02959 -4.95143 0.697659 -63.7856 -6.2066 4.08917 -105.288 16.3044 -9.56646 -3.62579e-008 2.91198e-006 5.49621e-006 -8.89925 0.0685353 0.948865 1.42125e-005 -1.18897e-008 3.01946 -8.02908 -4.95143 -0.697688 174.741 0.815637 2.44068 180 7.01544e-015 178.909 179.405 10.6278 179.589 -1.49666e-006 -1.14852e-006 0.116784 -18.3802 68.7983 20.1977 8.13649 25.2327 -3.48773 -171.591 0.798522 -2.57963 4.54188e-006 -4.6773e-006 -0.893826 -0.844376 -14.5961 0.582163 -2.31005e-006 1.7212e-006 -0.230692 20.467 72.5324 -23.9273 -8.13666 25.2352 3.4844 
52.2789 96.0986 7.72135 -1.885 -4.12869 1.46215 0.225028 -1.39022 0.105405 0.457471 1.22269 0.178434 0.455702 2.86773 0.170743 6.10108 10.3332 -7.43288 13.1331 2.14831 -4.91033 34.6923 -17.2465 -13.2621 50.009 47.9296 60.2255 1.48623e-006 -1.16626e-006 -2.64008e-006 -1.49456 59.5079 2.8763 -6.73221e-006 -2.22006e-006 -3.00237 8.02959 -4.95143 0.697659 -63.7989 -6.20976 4.09155 -105.271 16.2959 -9.57672 -3.62579e-008 2.91198e-006 5.49621e-006 -8.89817 0.0685337 0.948184 1.42125e-005 -1.18897e-008 3.01949 -8.02908 -4.95143 -0.697688 174.748 0.815849 2.4375 180 7.01544e-015 178.909 179.404 10.6197 179.589 -1.49666e-006 -1.14852e-006 0.116742 -18.3843 68.7992 20.1988 8.13649 25.2327 -3.48773 -171.586 0.814501 -2.57672 4.54188e-006 -4.6773e-006 -0.893006 -0.838667 -14.5962 0.583921 -2.31005e-006 1.7212e-006 -0.230292 20.4534 72.5278 -23.9216 -8.13666 25.2352 3.4844 
52.2762 96.099 7.7248 -1.88817 -4.11998 1.48282 0.223291 -1.39143 0.106359 0.454422 1.22028 0.179415 0.452626 2.86532 0.171811 6.10558 10.2774 -7.45624 13.1641 2.23324 -4.94354 34.6805 -17.2555 -13.2725 50.0045 47.9223 60.4207 1.48623e-006 -1.16626e-006 -2.64008e-006 -1.67416 58.8812 2.98219 -6.73221e-006 -2.22006e-006 -3.00237 8.02959 -4.95143 0.697659 -63.8127 -6.21231 4.0936 -105.254 16.2868 -9.58759 -3.62579e-008 2.91198e-006 5.49621e-006 -8.89696 0.0685322 0.94753 1.42125e-005 -1.18897e-008 3.01952 -8.02908 -4.95143 -0.697688 174.755 0.815099 2.43434 180 7.01544e-015 178.909 179.403 10.6116 179.59 -1.49666e-006 -1.14852e-006 0.116728 -18.3881 68.8 20.1998 8.13649 25.2327 -3.48773 -171.582 0.829111 -2.57414 4.54188e-006 -4.6773e-006 -0.892224 -0.833168 -14.5962 0.585619 -2.31005e-006 1.7212e-006 -0.22991 20.4404 72.5235 -23.9161 -8.13666 25.2352 3.4844 
52.2742 96.1011 7.74051 -1.89132 -4.11233 1.50265 0.221612 -1.39248 0.107354 0.451416 1.21818 0.180691 0.449591 2.86322 0.173169 6.10687 10.2263 -7.47771 13.1991 2.31418 -4.97464 34.6684 -17.2642 -13.2826 49.998 47.9169 60.6148 1.48623e-006 -1.16626e-006 -2.64008e-006 -1.85174 58.2498 3.08336 -6.73221e-006 -2.22006e-006 -3.00237 8.02959 -4.95143 0.697659 -63.8271 -6.21415 4.0953 -105.237 16.2772 -9.59908 -3.62579e-008 2.91198e-006 5.49621e-006 -8.89565 0.0685306 0.946899 1.42125e-005 -1.18897e-008 3.01955 -8.02908 -4.95143 -0.697688 174.762 0.81334 2.4312 180 7.01544e-015 178.909 179.402 10.6035 179.591 -1.49666e-006 -1.14852e-006 0.116752 -18.3918 68.8008 20.2007 8.13649 25.2327 -3.48773 -171.577 0.8422 -2.57208 4.54188e-006 -4.6773e-006 -0.891492 -0.828056 -14.5962 0.587211 -2.31005e-006 1.7212e-006 -0.229549 20.428 72.5196 -23.911 -8.13666 25.2352 3.4844 
52.2733 96.1003 7.736 -1.89442 -4.10587 1.52148 0.219995 -1.39337 0.108391 0.448455 1.21641 0.182311 0.446598 2.86145 0.174866 6.10452 10.1807 -7.497 13.2389 2.39019 -5.0032 34.6558 -17.2727 -13.2925 49.9893 47.9133 60.8078 1.48623e-006 -1.16626e-006 -2.64008e-006 -2.02736 57.613 3.17973 -6.73221e-006 -2.22006e-006 -3.00237 8.02959 -4.95143 0.697659 -63.8423 -6.21518 4.09658 -105.218 16.2669 -9.61122 -3.62579e-008 2.91198e-006 5.49621e-006 -8.89425 0.0685291 0.946288 1.42125e-005 -1.18897e-008 3.01959 -8.02908 -4.95143 -0.697688 174.768 0.81052 2.42808 180 7.01544e-015 178.909 179.401 10.5958 179.591 -1.49666e-006 -1.14852e-006 0.116825 -18.3951 68.8017 20.2014 8.13649 25.2327 -3.48773 -171.572 0.853615 -2.57072 4.54188e-006 -4.6773e-006 -0.890825 -0.823505 -14.5964 0.588651 -2.31005e-006 1.7212e-006 -0.229209 20.4167 72.5161 -23.9064 -8.13666 25.2352 3.4844 
52.2725 96.0994 7.73679 -1.89745 -4.10073 1.53921 0.218449 -1.39406 0.10947 0.445542 1.21503 0.184324 0.44365 2.86007 0.176946 6.09809 10.1415 -7.51382 13.2842 2.46037 -5.02883 34.6426 -17.2807 -13.3021 49.9779 47.9116 60.9996 1.48623e-006 -1.16626e-006 -2.64008e-006 -2.20109 56.9705 3.27126 -6.73221e-006 -2.22006e-006 -3.00237 8.02959 -4.95143 0.697659 -63.8584 -6.21532 4.09741 -105.198 16.2559 -9.62401 -3.62579e-008 2.91198e-006 5.49621e-006 -8.8928 0.0685276 0.945691 1.42125e-005 -1.18897e-008 3.01962 -8.02908 -4.95143 -0.697688 174.775 0.806591 2.42499 180 7.01544e-015 178.909 179.4 10.5884 179.592 -1.49666e-006 -1.14852e-006 0.116956 -18.3981 68.8027 20.2021 8.13649 25.2327 -3.48773 -171.566 0.863202 -2.57026 4.54188e-006 -4.6773e-006 -0.890237 -0.819688 -14.5969 0.589897 -2.31005e-006 1.7212e-006 -0.228895 20.4067 72.5133 -23.9024 -8.13666 25.2352 3.4844 
52.2691 96.0993 7.73855 -1.90039 -4.09706 1.55568 0.216977 -1.39455 0.110594 0.442677 1.21406 0.186777 0.440747 2.8591 0.179455 6.08711 10.1096 -7.5279 13.3356 2.52379 -5.05114 34.6289 -17.2882 -13.3112 49.9639 47.9119 61.19 1.48623e-006 -1.16626e-006 -2.64008e-006 -2.37299 56.3217 3.3579 -6.73221e-006 -2.22006e-006 -3.00236 8.02959 -4.95143 0.697659 -63.8755 -6.21446 4.09775 -105.177 16.2439 -9.63748 -3.62579e-008 2.91198e-006 5.49621e-006 -8.89133 0.0685261 0.945106 1.42125e-005 -1.18897e-008 3.01965 -8.02908 -4.95143 -0.697688 174.782 0.801505 2.42191 180 7.01544e-015 178.909 179.4 10.5816 179.592 -1.49666e-006 -1.14852e-006 0.117155 -18.4008 68.8038 20.2026 8.13649 25.2327 -3.48773 -171.56 0.870809 -2.5709 4.54188e-006 -4.6773e-006 -0.889741 -0.81678 -14.5979 0.590901 -2.31005e-006 1.7212e-006 -0.228608 20.3983 72.5112 -23.8991 -8.13666 25.2352 3.4844 
